<svg width="54" height="40" viewBox="0 0 54 40" fill="none" xmlns="http://www.w3.org/2000/svg">
<path d="M0 0H53.9231V39.9046H0V0Z" fill="#8DC443"/>
<path d="M26.4885 10.0978C27.9253 10.0978 29.0901 11.2961 29.0901 12.7743V18.1274H23.887V12.7743C23.887 11.2961 25.0517 10.0978 26.4885 10.0978ZM30.3908 18.1274V12.7743C30.3908 10.557 28.6437 8.75952 26.4885 8.75952C24.3333 8.75952 22.5862 10.557 22.5862 12.7743V18.1274C21.1494 18.1274 19.9846 19.3257 19.9846 20.8039V27.4952C19.9846 28.9734 21.1494 30.1717 22.5862 30.1717H30.3908C31.8276 30.1717 32.9924 28.9734 32.9924 27.4952V20.8039C32.9924 19.3257 31.8276 18.1274 30.3908 18.1274Z" fill="white"/>
</svg>
