<svg width="54" height="40" viewBox="0 0 54 40" fill="none" xmlns="http://www.w3.org/2000/svg">
<path d="M0 0H53.9231V39.9046H0V0Z" fill="#8CC443"/>
<path d="M16.0823 13.6258C16.0823 12.0132 17.3529 10.7059 18.9203 10.7059H35.9487C37.5161 10.7059 38.7867 12.0132 38.7867 13.6258V25.3052C38.7867 26.9178 37.5161 28.225 35.9487 28.225H18.9203C17.3529 28.225 16.0823 26.9178 16.0823 25.3052V13.6258ZM28.8535 15.8157C28.8535 16.2188 29.1712 16.5456 29.5631 16.5456H35.2392C35.631 16.5456 35.9487 16.2188 35.9487 15.8157C35.9487 15.4125 35.631 15.0857 35.2392 15.0857H29.5631C29.1712 15.0857 28.8535 15.4125 28.8535 15.8157ZM28.8535 19.4655C28.8535 19.8686 29.1712 20.1954 29.5631 20.1954H35.2392C35.631 20.1954 35.9487 19.8686 35.9487 19.4655C35.9487 19.0623 35.631 18.7355 35.2392 18.7355H29.5631C29.1712 18.7355 28.8535 19.0623 28.8535 19.4655ZM30.2726 23.1153C30.2726 23.5184 30.5902 23.8452 30.9821 23.8452H35.2392C35.631 23.8452 35.9487 23.5184 35.9487 23.1153C35.9487 22.7121 35.631 22.3853 35.2392 22.3853H30.9821C30.5902 22.3853 30.2726 22.7121 30.2726 23.1153ZM28.8535 26.0351C28.8535 23.2131 26.3122 20.9254 23.1774 20.9254C20.2169 20.9254 17.7857 22.9658 17.5245 25.5697C17.6455 26.2497 18.2244 26.7651 18.9203 26.7651H28.796C28.8339 26.5267 28.8535 26.283 28.8535 26.0351ZM26.0155 16.5456C26.0155 14.933 24.7448 13.6258 23.1774 13.6258C21.61 13.6258 20.3393 14.933 20.3393 16.5456C20.3393 18.1582 21.61 19.4655 23.1774 19.4655C24.7448 19.4655 26.0155 18.1582 26.0155 16.5456Z" fill="white"/>
</svg>
